<?xml version="1.0" encoding="UTF-8"?>
<svg id="Layer_2" xmlns="http://www.w3.org/2000/svg" viewBox="0 0 659.63 665.81"><defs><style>.cls-1{fill:#f7f4e9;}</style></defs><g id="Layer_1-2"><path class="cls-1" d="M60.36,284.31c.22-.46.56-.64,1.02-.52.45.13.64.44.53.92l-3.75,18.3c-.1.49-.38.7-.86.64-.47-.07-.71-.35-.74-.87.04-.82.12-1.59.23-2.32.12-.71.1-1.36-.03-1.93-.14-.57-.47-1.08-.99-1.5-.53-.43-1.39-.77-2.63-1.02l-45.75-9.4c-1.23-.25-2.17-.29-2.82-.1s-1.15.52-1.5.99-.61,1.06-.79,1.77c-.18.7-.41,1.44-.69,2.22-.22.47-.56.64-1.02.52-.46-.12-.64-.44-.53-.93l5.52-26.88c.67-3.26,1.72-6.32,3.14-9.18s3.18-5.27,5.29-7.25,4.5-3.39,7.18-4.26c2.68-.86,5.62-.97,8.83-.31,4.06.83,7.22,2.58,9.47,5.23,2.25,2.65,3.8,5.71,4.65,9.19.86,3.48,1.15,7.14.88,10.97s-.93,7.37-1.99,10.62l-.41,2.43c-.09.43-.26.74-.53.9-.26.18-.52.23-.76.19-.24-.05-.44-.2-.58-.46-.14-.25-.14-.56,0-.91.26-.65.42-1.01.46-1.06.04-.05.13-.42.27-1.1.71-3.45.99-6.73.82-9.85-.16-3.12-.77-5.92-1.83-8.42-1.06-2.49-2.58-4.61-4.58-6.33-1.99-1.72-4.46-2.89-7.42-3.5-5.97-1.23-10.81.04-14.5,3.81-3.7,3.77-6.31,9.41-7.86,16.93l-.65,3.14.15-.26c-.24,1.17-.2,2.22.12,3.15s1.28,1.57,2.89,1.89l45.92,9.44c1.23.25,2.17.29,2.82.1s1.15-.52,1.5-.99.61-1.06.79-1.77.41-1.44.69-2.22v.02Z"/><path class="cls-1" d="M79.67,193.81c1.5.65,2.91,1.48,4.22,2.51,1.31,1.03,2.34,2.21,3.11,3.53.77,1.32,1.23,2.78,1.36,4.38.14,1.59-.2,3.35-1.01,5.26-.81,1.91-2,3.46-3.57,4.63-1.57,1.17-3.32,2.16-5.26,2.94-1.93.78-3.96,1.45-6.09,2.02-2.12.57-4.16,1.22-6.11,1.95-1.95.74-3.73,1.66-5.32,2.76-1.59,1.1-2.82,2.56-3.67,4.39-.18.41-.38.67-.65.8s-.5.14-.74.04c-.23-.1-.41-.3-.53-.58s-.07-.59.13-.92c.38-.58.6-.89.65-.9.04-.01.21-.37.5-1.06,1.38-3.24,2.31-6.4,2.77-9.48.46-3.08.42-5.96-.12-8.62-.54-2.66-1.61-5.03-3.22-7.11-1.6-2.09-3.8-3.72-6.58-4.91-5.61-2.39-10.6-2.11-14.97.85-4.37,2.95-8.08,7.99-11.11,15.11l-1.22,2.87.2-.22c-.47,1.1-.64,2.14-.5,3.12s.94,1.79,2.45,2.43l43.12,18.4c1.15.49,2.07.71,2.74.66.67-.05,1.23-.27,1.67-.67.44-.4.82-.91,1.13-1.57.32-.65.69-1.33,1.12-2.03.29-.35.65-.44,1.09-.25s.55.5.35.98l-7.33,17.18c-.2.46-.53.61-.97.46-.45-.15-.63-.49-.55-1,.18-.75.4-1.45.66-2.13s.37-1.33.37-1.94-.23-1.19-.66-1.71-1.22-1.03-2.37-1.53l-42.96-18.32c-1.15-.49-2.07-.71-2.74-.66-.67.05-1.23.3-1.69.71-.45.42-.83.96-1.15,1.61-.31.66-.67,1.31-1.09,1.94-.31.42-.68.52-1.1.3-.43-.21-.54-.55-.34-1.01l10.74-25.16c1.33-3.13,2.99-5.94,4.94-8.45,1.97-2.51,4.17-4.53,6.63-6.05,2.46-1.51,5.09-2.43,7.88-2.73,2.8-.31,5.71.18,8.71,1.46,3.01,1.28,5.34,3.03,6.99,5.24,1.66,2.21,2.78,4.68,3.36,7.39.58,2.71.72,5.55.41,8.53-.31,2.98-.93,5.87-1.87,8.69,1.54-2.01,3.41-3.45,5.63-4.31s4.44-1.61,6.65-2.24c2.22-.63,4.26-1.37,6.14-2.25,1.88-.87,3.25-2.33,4.12-4.35.49-1.15.65-2.28.47-3.39-.18-1.1-.58-2.03-1.23-2.78-.64-.75-1.43-1.3-2.38-1.62s-1.91-.34-2.88,0c-1.27.42-2.38.81-3.33,1.2-.94.38-1.91.36-2.9-.05-.81-.34-1.35-.88-1.62-1.61-.26-.72-.23-1.5.11-2.31.42-.98,1.02-1.59,1.81-1.84.79-.24,1.64-.31,2.55-.2.91.12,1.81.36,2.71.75.9.38,1.67.71,2.29.98l.04-.07Z"/><path class="cls-1" d="M100.6,181.89c.32-.4.67-.46,1.05-.19s.45.63.19,1.05l-9.68,15.86c-.26.43-.6.54-1.02.32-.42-.22-.53-.56-.32-1.02.29-.71.59-1.38.91-2.04.32-.65.52-1.26.58-1.86.07-.58-.08-1.17-.43-1.76s-1.03-1.17-2.05-1.8l-39.78-24.27c-1.08-.66-1.94-1-2.62-1.04-.67-.04-1.24.11-1.71.45-.46.34-.91.8-1.35,1.39-.43.58-.89,1.16-1.39,1.75-.37.36-.75.41-1.13.14-.38-.27-.45-.63-.19-1.05l9.68-15.86c.26-.43.6-.54,1.02-.32.42.22.55.58.4,1.06-.32.77-.64,1.47-.97,2.12-.32.65-.53,1.26-.61,1.83s.03,1.14.38,1.72,1.05,1.2,2.13,1.86l39.78,24.27c1.02.63,1.87.96,2.54,1,.68.04,1.26-.1,1.75-.43.49-.33.96-.78,1.38-1.36s.91-1.2,1.45-1.82h.02Z"/><path class="cls-1" d="M123.65,155.32c-.56,1.34-1.31,2.02-2.24,2.05s-2.11-.14-3.52-.52l-51.67-16.37c-1.24-.38-2.27-.53-3.11-.42-.83.11-1.59.36-2.25.76-.66.38-1.25.88-1.79,1.45-.53.58-1.11,1.14-1.73,1.68-.43.31-.8.29-1.14-.04-.34-.33-.35-.68-.02-1.06l13.12-15.47c.33-.38.68-.44,1.05-.15.38.29.47.64.29,1.04-.43.7-.86,1.35-1.28,1.94-.42.59-.69,1.13-.8,1.6-.12.47-.02.92.27,1.35.3.42,1,.81,2.11,1.16l44.31,13.82c.74.21,1.2.19,1.41-.04.21-.24.14-.7-.18-1.39l-21.01-41.44c-.53-1.02-1.08-1.59-1.65-1.7-.57-.11-1.14.01-1.75.37s-1.19.87-1.79,1.51c-.59.65-1.2,1.25-1.82,1.79-.42.31-.8.29-1.14-.04s-.35-.68-.02-1.06l10.8-12.73c.33-.38.67-.43,1.03-.12s.45.67.25,1.09c-.44.7-.88,1.38-1.34,2.02-.46.64-.83,1.33-1.13,2.06s-.42,1.54-.37,2.4.36,1.88.96,3.03c2.12,4.11,4.29,8.35,6.5,12.76,2.21,4.39,4.44,8.77,6.66,13.14,2.23,4.37,4.46,8.71,6.65,13.01,2.21,4.3,4.31,8.46,6.35,12.49v.03Z"/><path class="cls-1" d="M131.25,143.95l.07.07-4.62,4.03c-.38.33-.68.38-.91.18-.23-.22-.2-.54.1-.97.54-.64,1.08-1.21,1.62-1.72s1-1.1,1.36-1.75c.35-.65.57-1.37.65-2.2.08-.82-.09-1.84-.49-3.07l-17.13-51.52c-.48-1.5-.69-2.67-.67-3.49.03-.82.77-1.65,2.21-2.49l52.72,25.88c1.04.43,1.95.64,2.73.63s1.49-.15,2.13-.42c.65-.26,1.26-.64,1.84-1.11.59-.47,1.21-.91,1.87-1.31.42-.2.72-.18.93.07s.12.52-.26.86l-4.7,4.09-.07-.07-5.54,4.83.07.07-5.05,4.4c-.38.33-.68.38-.91.18-.23-.22-.2-.54.1-.97.48-.59,1-1.14,1.55-1.67s.93-1.02,1.14-1.49c.21-.47.21-.96,0-1.44-.21-.48-.81-.96-1.81-1.43-1.37-.71-2.77-1.43-4.17-2.12s-2.81-1.38-4.24-2.06l-23.54,20.52,3,8.89c.33,1.05.78,1.66,1.35,1.83.57.18,1.19.12,1.86-.18.67-.29,1.35-.72,2.06-1.3.71-.57,1.39-1.06,2.04-1.47.46-.23.78-.22.97.03.19.26.09.55-.3.88l-6.26,5.46-.07-.07-1.64,1.43h.01ZM127.57,126.24l22.12-19.28c-5.35-2.59-10.66-5.17-15.92-7.71-5.27-2.55-10.55-5.14-15.85-7.77-1.47-.64-1.94-.22-1.42,1.24l11.08,33.52h-.01Z"/><path class="cls-1" d="M212.88,74.23c-.72,4.13-2.26,8-4.59,11.61-2.34,3.61-5.98,6.86-10.92,9.74-6.26,3.63-12.23,5.35-17.92,5.13-5.69-.22-10.73-1.71-15.09-4.48-4.37-2.77-7.89-6.44-10.57-11.04-2.67-4.59-4.13-9.47-4.37-14.64-.24-5.17.94-10.29,3.58-15.34,2.62-5.05,7.07-9.4,13.32-13.03,2.06-1.2,4.12-2.17,6.16-2.92,2.04-.75,4.02-1.28,5.94-1.6.31-.1.79-.21,1.46-.31l.04.08.08-.04c1.54-.24,3.21-.33,5.02-.3,1.81.04,3.35.27,4.61.7,1.1.38,1.91.91,2.45,1.58.54.67.85,1.36.93,2.07.09.71-.02,1.37-.32,1.99-.3.61-.75,1.09-1.35,1.44s-1.3.52-2.11.52-1.68-.32-2.61-.93c-.59-.38-1.11-.85-1.57-1.38-.46-.54-1-1.02-1.61-1.46s-1.45-.8-2.47-1.08c-1.03-.27-2.37-.33-4.03-.16-1.56.33-3.17.87-4.84,1.61-1.67.75-3.18,1.53-4.54,2.32-4.62,2.69-7.81,6.16-9.55,10.41-1.75,4.26-2.34,8.67-1.79,13.26.56,4.59,2.05,9,4.49,13.26s5.5,7.77,9.18,10.54c3.69,2.77,7.81,4.45,12.36,5.03,4.56.59,9.2-.49,13.93-3.25,2.83-1.65,5.08-3.29,6.77-4.97,1.68-1.67,3-3.33,3.94-4.96.93-1.64,1.58-3.26,1.91-4.87.34-1.61.55-3.14.66-4.59.08-.99.42-1.66,1.01-2.01.6-.35,1.21-.34,1.82.03.61.37.81,1.05.59,2.05h.01Z"/><path class="cls-1" d="M256.52,68.99c.49-.09.78.02.85.33s-.14.54-.63.69l-17.81,5.65c-.48.15-.78.09-.9-.21-.13-.29.04-.54.5-.76.74-.36,1.45-.69,2.12-.97.67-.27,1.23-.6,1.67-.98.44-.37.72-.89.85-1.56s0-1.59-.4-2.8l-5.65-17.81-28.45-21.94c-1.12-.83-2.13-1.38-3.01-1.67s-1.69-.42-2.42-.43c-.72,0-1.43.08-2.11.22-.68.15-1.39.27-2.15.38-.52.03-.8-.09-.86-.37s.15-.49.64-.65l19.87-6.31c.48-.15.79-.07.92.25.13.32-.04.56-.52.71-.88.35-1.7.69-2.45,1.02-.75.34-1.3.71-1.62,1.11s-.41.86-.21,1.35c.19.49.76,1.1,1.7,1.78l23.76,18.68c.65.38,1.13.54,1.43.44.24-.08.53-.43.86-1.06l9.36-29.4c.33-1.03.42-1.8.25-2.31-.16-.5-.49-.83-1-.97s-1.14-.13-1.92.02c-.78.15-1.62.34-2.55.56-.48.15-.76.07-.83-.27-.08-.34.13-.58.6-.74l14.66-4.65c.48-.15.78-.1.89.16.12.26-.04.53-.49.8-.74.37-1.43.69-2.07.96-.64.27-1.26.61-1.86,1.03-.59.42-1.14.99-1.64,1.71-.49.72-1,1.76-1.49,3.1l-10.84,33.82,5.83,18.34c.38,1.2.81,2.03,1.3,2.51.48.47,1.01.74,1.58.78.58.04,1.22,0,1.93-.16.7-.15,1.47-.3,2.29-.43h.01Z"/><path class="cls-1" d="M317.2,58.17c.5.02.77.26.77.75s-.24.74-.75.77l-18.52,1.5c-.5.04-.79-.18-.86-.64-.07-.47.14-.75.64-.86.75-.19,1.47-.34,2.18-.46.71-.12,1.33-.33,1.84-.63s.9-.75,1.16-1.37.35-1.53.25-2.72l-3.78-46.45c-.1-1.25-.33-2.16-.69-2.73s-.81-.94-1.37-1.12c-.55-.18-1.19-.26-1.91-.27-.72,0-1.47-.03-2.23-.1-.52-.09-.77-.36-.78-.83,0-.47.24-.72.75-.77l18.52-1.5c.5-.04.79.18.86.64.07.47-.14.79-.64.96-.8.19-1.57.35-2.28.47-.71.12-1.33.32-1.84.57-.52.26-.9.7-1.16,1.33-.26.63-.35,1.56-.24,2.81l3.78,46.45c.1,1.19.33,2.07.69,2.65.36.57.82.97,1.37,1.16.55.21,1.2.32,1.92.32s1.5.03,2.33.1h-.01Z"/><path class="cls-1" d="M370,45.48c-.18,3.07-1.02,5.68-2.52,7.79s-3.43,3.82-5.77,5.1c-2.34,1.28-4.98,2.17-7.95,2.67-2.95.49-6,.65-9.14.47-5.21-.3-9.8-1.25-13.78-2.87s-7.84-4.31-11.58-8.12c-.83-.93-1.03-1.75-.61-2.45s.97-1.03,1.66-.99c.63.03,1.17.42,1.64,1.13,1.15,1.83,2.58,3.44,4.26,4.82,1.68,1.38,3.51,2.52,5.48,3.43,1.97.9,3.95,1.59,5.97,2.09s3.94.76,5.76.8c3.07.11,5.88-.27,8.43-1.17,2.54-.9,4.69-2.09,6.43-3.56,1.76-1.47,3.03-3.15,3.83-5.03.8-1.88.96-3.75.46-5.64-.49-1.89-1.68-3.66-3.58-5.3-1.89-1.65-4.63-3.02-8.22-4.11-2.98-.92-6.14-1.81-9.48-2.67-3.35-.85-6.42-1.95-9.21-3.3-2.79-1.35-5.05-3.07-6.8-5.16-1.75-2.09-2.51-4.75-2.33-8.02.16-2.95.93-5.42,2.32-7.43,1.37-2,3.13-3.61,5.28-4.85,2.15-1.24,4.56-2.09,7.23-2.57,2.68-.47,5.42-.64,8.24-.47,4.2.24,8.24,1.16,12.13,2.77,1.36.45,2.8,1.2,4.31,2.23h.19c.79.56,1.49,1.12,2.12,1.69.63.57,1.15,1.12,1.56,1.65,1.23,1.65,1.53,3.03.9,4.16-.64,1.13-1.51,1.66-2.65,1.6-.5-.03-1-.19-1.48-.46-.49-.27-.9-.78-1.24-1.48-.34-.65-.57-1.32-.69-2.02-.12-.7-.32-1.38-.59-2.06s-.75-1.36-1.39-2.06c-.65-.7-1.68-1.37-3.1-2.02-2.96-1.11-6.2-1.77-9.72-1.97-2.07-.12-4.08-.02-6.02.27-1.94.3-3.69.87-5.25,1.68-1.56.82-2.82,1.93-3.78,3.33-.97,1.39-1.5,3.1-1.61,5.1-.07,1.2.05,2.37.36,3.51.32,1.15.99,2.26,2.03,3.33,1.04,1.06,2.49,2.07,4.36,3.04,1.87.96,4.31,1.87,7.36,2.73,2.98.8,6.05,1.65,9.21,2.56,3.16.9,6.03,2.11,8.58,3.6,2.56,1.5,4.64,3.38,6.25,5.64,1.6,2.26,2.31,5.13,2.11,8.57l.03.02Z"/><path class="cls-1" d="M402.86,67.79c.44.27.57.64.4,1.08-.18.44-.5.58-.98.43l-15.51-5.08c-.48-.15-.66-.46-.54-.92.12-.46.44-.67.96-.64.81.13,1.6.3,2.37.48s1.48.24,2.13.15c.66-.09,1.26-.36,1.81-.85s1.03-1.32,1.42-2.51l15.05-44.41c.3-1.1.37-1.94.24-2.55-.13-.6-.42-1.1-.86-1.47s-1-.69-1.68-.94-1.36-.56-2.03-.91c-.44-.27-.57-.64-.4-1.08s.5-.58.98-.43l9.23,3.03c1.37.45,2.28.97,2.72,1.54.44.57.85,1.39,1.23,2.44,2.93,9.23,5.83,18.44,8.72,27.63,2.88,9.19,5.81,18.43,8.77,27.74.19.66.46.98.82.97.36,0,.65-.32.85-.91l13.52-41.23c.3-1.1.31-1.97.07-2.61-.25-.65-.66-1.17-1.22-1.59-.56-.42-1.23-.77-1.99-1.05-.77-.29-1.49-.6-2.16-.96-.44-.27-.57-.64-.4-1.08s.5-.58.99-.42l15.51,5.08c.48.15.66.46.54.92-.12.46-.44.67-.96.64-.81-.13-1.61-.32-2.4-.54-.79-.22-1.54-.32-2.24-.29s-1.36.26-1.97.69c-.6.43-1.1,1.24-1.49,2.44l-16.16,49.01c-.3.9-.86,1.21-1.69.93l-3.14-1.03c-.83-.27-1.42-.61-1.75-1.02s-.61-.94-.86-1.62l-18.78-59.27-13.83,43.71c-.37,1.14-.48,2.06-.32,2.78.16.71.5,1.3,1.02,1.72.52.44,1.13.78,1.84,1.04.7.26,1.43.58,2.16.96h-.01Z"/><path class="cls-1" d="M500.4,45.95c6.19,3.72,10.57,8.13,13.12,13.23,2.56,5.09,3.69,10.23,3.39,15.41-.3,5.18-1.82,10.08-4.59,14.69s-6.38,8.26-10.81,10.95c-4.45,2.69-9.51,4.09-15.2,4.24-5.7.13-11.64-1.66-17.84-5.39-6.2-3.72-10.57-8.13-13.13-13.23-2.56-5.09-3.69-10.23-3.39-15.41.3-5.18,1.82-10.08,4.59-14.69,2.77-4.61,6.38-8.26,10.81-10.95s9.51-4.09,15.2-4.24c5.7-.13,11.64,1.66,17.84,5.39h.01ZM499.43,47.56c-4.74-2.85-9.44-4.01-14.1-3.47s-8.89,2.2-12.72,4.95c-3.83,2.77-7.03,6.29-9.61,10.57-2.58,4.28-4.18,8.76-4.83,13.44s-.12,9.2,1.59,13.56c1.7,4.37,4.93,7.97,9.67,10.82,4.8,2.89,9.52,4.06,14.17,3.51,4.65-.54,8.89-2.2,12.72-4.95,3.82-2.77,7.03-6.29,9.61-10.57,2.58-4.28,4.18-8.77,4.83-13.44.65-4.68.12-9.2-1.59-13.56-1.71-4.37-4.96-7.99-9.76-10.87h.01ZM482.48,77.22c-.38.27-.72.34-.99.18-.27-.16-.34-.46-.23-.9.1-.53.31-1.1.64-1.71.33-.6.42-1.14.25-1.61-.08-.48-.42-.92-1.02-1.33-.6-.4-1.06-.83-1.36-1.32-.29-.38-.34-.71-.18-.99.16-.26.46-.34.9-.23.53.1,1.1.31,1.7.64.6.33,1.14.41,1.61.25.48-.08.92-.42,1.33-1.02.4-.6.83-1.05,1.32-1.36.38-.27.71-.34.99-.18.26.16.34.46.23.91-.1.53-.31,1.1-.64,1.7-.33.6-.42,1.14-.25,1.61.08.48.42.93,1.02,1.33.6.4,1.05.83,1.36,1.32.27.38.34.71.18.99s-.46.34-.9.23c-.53-.1-1.1-.31-1.71-.64s-1.14-.42-1.6-.25c-.48.08-.93.42-1.33,1.02-.41.6-.83,1.05-1.31,1.36h-.01Z"/><path class="cls-1" d="M546.18,144.04c-1.12,1.2-2.38,2.23-3.8,3.11-1.42.88-2.88,1.45-4.38,1.72s-3.03.21-4.58-.2c-1.55-.41-3.08-1.33-4.6-2.73-1.51-1.42-2.57-3.05-3.15-4.93-.58-1.87-.91-3.85-.98-5.94-.08-2.09-.02-4.23.18-6.41.19-2.18.26-4.33.24-6.42-.03-2.09-.3-4.07-.78-5.95-.49-1.88-1.45-3.52-2.88-4.94-.32-.3-.49-.59-.54-.88-.03-.29.03-.53.21-.7.18-.19.41-.29.72-.3.31-.01.58.13.81.44.42.56.63.87.64.91,0,.04.27.32.83.83,2.58,2.39,5.24,4.34,7.98,5.82s5.46,2.42,8.15,2.81c2.68.4,5.28.19,7.78-.61,2.5-.8,4.79-2.31,6.84-4.52,4.16-4.47,5.59-9.25,4.29-14.37-1.3-5.12-4.78-10.31-10.44-15.58l-2.28-2.12.14.26c-.88-.81-1.79-1.33-2.76-1.54-.97-.21-2.01.29-3.12,1.48l-31.93,34.32c-.86.92-1.37,1.71-1.55,2.36-.18.65-.15,1.25.07,1.8s.58,1.08,1.1,1.59c.5.52,1.02,1.1,1.53,1.75.23.4.2.76-.13,1.11-.32.34-.67.35-1.03,0l-13.67-12.72c-.37-.34-.41-.7-.1-1.06.3-.36.67-.43,1.13-.18.64.42,1.23.87,1.78,1.34s1.12.8,1.7,1.01c.58.21,1.2.19,1.83-.03.64-.22,1.38-.79,2.24-1.71l31.81-34.19c.86-.92,1.37-1.7,1.55-2.36.18-.65.14-1.26-.1-1.83s-.61-1.11-1.13-1.62c-.5-.52-1-1.08-1.46-1.68-.29-.44-.25-.81.09-1.14.34-.33.7-.32,1.06.03l20.02,18.64c2.48,2.32,4.58,4.82,6.28,7.52,1.7,2.7,2.84,5.46,3.44,8.29.59,2.83.56,5.61-.1,8.34-.66,2.73-2.1,5.3-4.33,7.7-2.23,2.39-4.67,4-7.3,4.8-2.65.8-5.34,1.02-8.08.66-2.76-.37-5.48-1.21-8.17-2.51-2.7-1.31-5.21-2.88-7.54-4.7,1.37,2.13,2.09,4.38,2.15,6.76.07,2.37.01,4.71-.15,7.01-.16,2.29-.15,4.48.03,6.54.19,2.06,1.09,3.84,2.7,5.35.92.86,1.93,1.38,3.03,1.59,1.1.21,2.11.13,3.03-.21.92-.35,1.7-.91,2.35-1.69.64-.78.97-1.68.97-2.7.04-1.34.04-2.51,0-3.53-.04-1.02.31-1.92,1.03-2.71.6-.65,1.28-.97,2.06-.98.78,0,1.49.29,2.14.89.78.72,1.15,1.5,1.12,2.33-.03.82-.26,1.65-.68,2.46-.42.81-.96,1.58-1.62,2.29-.66.71-1.23,1.32-1.7,1.83h-.01Z"/><path class="cls-1" d="M547.86,163.89c.23.45.13.8-.31,1.06-.44.25-.79.18-1.08-.24l-9.13-13.4c-.29-.42-.23-.78.18-1.09.4-.31.77-.27,1.1.11.53.55,1.05,1.13,1.57,1.72.53.59,1.09,1.04,1.71,1.34.61.3,1.32.42,2.06.36.76-.05,1.66-.44,2.7-1.15l37.92-25.26c1.03-.7,1.73-1.37,2.07-1.99s.48-1.22.42-1.82-.26-1.23-.59-1.88-.66-1.33-.98-2.02c-.18-.48-.07-.86.34-1.09.41-.24.75-.15,1.03.26l5.63,8.27c.6.89.9,1.69.9,2.42s-.23,1.43-.67,2.11c-1.05,1.7-2.09,3.38-3.13,5.04-1.04,1.66-2.09,3.34-3.13,5.04l-12.57,20.09c-1.04,1.7-2.09,3.38-3.13,5.04-1.03,1.66-2.09,3.34-3.13,5.04-.26.41-.29.76-.07,1.08s.54.4.97.25l48.49-10.09,7.22,10.6c.29.42.24.77-.13,1.06-.37.29-.75.26-1.14-.08-.56-.6-1.08-1.19-1.54-1.76-.46-.56-.93-1-1.42-1.32s-1.06-.44-1.73-.36c-.67.08-1.53.47-2.57,1.17l-38.51,26.24c-.99.67-1.64,1.31-1.95,1.9-.32.59-.43,1.19-.34,1.77s.32,1.2.67,1.82c.35.64.71,1.33,1.06,2.07.23.45.14.8-.26,1.03-.41.24-.75.15-1.03-.26l-10.46-15.36c-.29-.42-.24-.77.13-1.06s.72-.25,1.06.13c.53.55,1.02,1.11,1.48,1.68.46.56.94.99,1.45,1.3.51.3,1.1.41,1.77.34.67-.08,1.5-.45,2.49-1.12l37.96-25.86-49.89,10.02-1.65-2.42c-.49-.72-.75-1.35-.77-1.88-.01-.53.07-1.11.23-1.76l25.55-40.57-36.06,25.14c-1.04.71-1.72,1.41-2.06,2.09-.33.68-.46,1.38-.4,2.1.07.71.27,1.41.63,2.09s.68,1.36,1,2.05h.03Z"/><path class="cls-1" d="M576.93,211.83l-.09.03-2.17-5.73c-.18-.47-.13-.78.15-.92.29-.14.57,0,.87.43.41.72.76,1.43,1.05,2.12.3.69.68,1.32,1.16,1.88.48.56,1.09,1.01,1.83,1.37.74.36,1.76.56,3.05.61l54.26,1.88c1.57.08,2.74.27,3.5.59.76.32,1.28,1.3,1.57,2.94l-42.62,40.41c-.77.82-1.27,1.6-1.54,2.35-.26.74-.37,1.45-.35,2.15.02.69.15,1.41.4,2.12.23.71.43,1.45.58,2.21.03.45-.09.74-.38.86-.3.11-.53-.07-.7-.54l-2.2-5.83.09-.03-2.6-6.88-.09.03-2.37-6.27c-.18-.47-.13-.78.15-.92.29-.14.57,0,.87.43.38.66.72,1.34,1.02,2.03s.63,1.23,1,1.59.82.53,1.35.49,1.19-.43,1.97-1.2c1.15-1.04,2.29-2.1,3.44-3.16,1.14-1.08,2.27-2.15,3.41-3.25l-11.04-29.21-9.39-.29c-1.1-.05-1.82.15-2.18.63-.36.47-.53,1.06-.48,1.8.04.72.21,1.51.49,2.38.3.87.52,1.67.66,2.43.05.52-.07.81-.37.9-.31.08-.55-.11-.72-.58l-2.93-7.76.09-.03-.77-2.03.03-.02ZM594.81,214.55l10.37,27.44c4.29-4.12,8.55-8.19,12.77-12.24,4.22-4.05,8.49-8.1,12.8-12.15,1.11-1.16.89-1.75-.67-1.77l-35.28-1.28h.01Z"/><path class="cls-1" d="M604.59,314.27c-.31.04-.49-.14-.56-.58l-7.28-47.46c-.08-.49.12-.8.58-.9.46-.1.76.09.9.58.24.72.44,1.44.61,2.15.16.7.42,1.31.75,1.79.33.49.81.85,1.45,1.06s1.55.24,2.73.05l46.06-7.06c1.24-.19,2.13-.48,2.68-.89.54-.41.88-.89,1.02-1.45.13-.56.18-1.21.13-1.93-.04-.72-.07-1.47-.05-2.23.04-.52.31-.79.78-.83s.75.19.82.68l2.81,18.37c.08.49-.12.8-.58.9-.46.1-.79-.09-.99-.56-.25-.79-.46-1.54-.64-2.24-.18-.7-.41-1.31-.7-1.8s-.77-.86-1.41-1.08-1.58-.23-2.82-.04l-46.25,7.09c-1.43.22-2.36.69-2.79,1.43-.43.74-.63,1.6-.6,2.62l2.69,17.53c.37,2.43.91,4.39,1.62,5.91.71,1.51,1.56,2.69,2.55,3.52.99.83,2.13,1.43,3.43,1.77,1.3.34,2.71.58,4.26.74.45.05.7.32.75.79s-.15.74-.59.8l-11.35,1.26h-.01Z"/><path class="cls-1" d="M7.16,401.82c0,.52-.24.81-.71.89-.46.08-.76-.13-.87-.61l-4.28-18.18c-.12-.49.05-.8.5-.94.45-.14.8.02,1.03.48.31.77.56,1.49.76,2.2.2.69.48,1.27.85,1.73.36.46.88.78,1.54.94.65.16,1.59.11,2.82-.18l45.45-10.71c1.22-.29,2.09-.66,2.6-1.1.5-.44.82-.96.94-1.54s.11-1.22-.02-1.93c-.13-.71-.24-1.48-.3-2.31,0-.52.24-.82.71-.89.46-.08.76.13.87.61l6.3,26.72c.77,3.24,1.1,6.46,1.01,9.65-.09,3.18-.67,6.11-1.76,8.79-1.08,2.68-2.66,4.97-4.72,6.88-2.07,1.91-4.7,3.24-7.88,3.98-4.04.96-7.64.7-10.79-.75-3.15-1.46-5.85-3.58-8.09-6.38-2.25-2.8-4.05-5.99-5.41-9.58-1.36-3.59-2.25-7.08-2.67-10.47l-.66-2.37c-.1-.43-.07-.78.1-1.04.16-.26.37-.43.61-.48s.48,0,.72.16c.23.16.36.45.38.83.03.7.04,1.09.03,1.15s.05.44.21,1.11c.81,3.43,1.94,6.52,3.4,9.28,1.46,2.76,3.19,5.05,5.2,6.86,2.01,1.81,4.28,3.1,6.82,3.82,2.52.72,5.26.75,8.2.05,5.94-1.39,9.79-4.59,11.56-9.56,1.77-4.97,1.77-11.19,0-18.66l-.74-3.13-.02.3c-.27-1.16-.76-2.1-1.44-2.81-.69-.71-1.82-.88-3.41-.5l-45.64,10.76c-1.23.29-2.1.66-2.6,1.1-.52.44-.82.96-.94,1.54s-.12,1.22.02,1.93c.13.71.23,1.48.3,2.31v.04Z"/><path class="cls-1" d="M51.5,491.82c-1.49.68-3.05,1.14-4.7,1.41s-3.21.23-4.7-.1c-1.49-.33-2.88-.98-4.15-1.95-1.27-.98-2.34-2.42-3.19-4.3-.86-1.89-1.2-3.81-1.01-5.76s.65-3.91,1.38-5.86c.74-1.95,1.61-3.91,2.63-5.85,1.02-1.94,1.91-3.89,2.69-5.83s1.31-3.88,1.57-5.79c.26-1.92.02-3.81-.76-5.66-.19-.41-.23-.74-.15-1.02.08-.27.23-.47.46-.57s.48-.1.78,0c.3.11.48.35.58.72.16.68.25,1.04.23,1.09-.01.04.13.41.44,1.1,1.45,3.21,3.16,6.03,5.13,8.45,1.97,2.43,4.11,4.34,6.43,5.73s4.8,2.21,7.42,2.44c2.62.23,5.31-.29,8.06-1.53,5.55-2.51,8.72-6.39,9.5-11.6.78-5.21-.43-11.35-3.62-18.4l-1.28-2.83.03.3c-.49-1.09-1.14-1.91-1.95-2.48-.81-.57-1.95-.52-3.45.16l-42.7,19.35c-1.14.52-1.93,1.04-2.34,1.58-.42.54-.63,1.1-.64,1.69,0,.59.12,1.22.4,1.89.26.67.52,1.41.74,2.21.07.45-.11.78-.54.98s-.75.07-.96-.4l-7.71-17.02c-.21-.46-.1-.8.32-1.02.42-.22.79-.13,1.11.27.43.64.8,1.27,1.13,1.92s.72,1.17,1.19,1.58c.46.42,1.03.64,1.7.68.67.04,1.58-.2,2.72-.72l42.53-19.28c1.14-.52,1.92-1.04,2.34-1.58s.61-1.11.61-1.72-.14-1.26-.41-1.93c-.27-.67-.5-1.37-.7-2.12-.1-.52.08-.85.53-1.01.44-.16.77-.02.98.44l11.3,24.92c1.41,3.1,2.36,6.21,2.9,9.35.53,3.14.52,6.14-.02,8.97-.55,2.83-1.65,5.39-3.32,7.66-1.66,2.27-3.98,4.08-6.96,5.43-2.99,1.35-5.84,1.89-8.6,1.61-2.74-.27-5.31-1.11-7.72-2.51-2.39-1.39-4.59-3.22-6.56-5.47-1.99-2.25-3.7-4.65-5.15-7.25.44,2.49.23,4.85-.63,7.07s-1.8,4.36-2.84,6.41c-1.03,2.05-1.87,4.07-2.49,6.05-.63,1.98-.48,3.96.43,5.97.52,1.14,1.24,2.03,2.17,2.63.93.61,1.89.93,2.88.98.99.03,1.92-.19,2.81-.66s1.54-1.17,1.93-2.12c.55-1.22,1.01-2.31,1.37-3.26.36-.96,1.03-1.66,2-2.1.8-.36,1.56-.4,2.28-.1.71.3,1.26.85,1.62,1.65.44.98.48,1.83.13,2.58s-.88,1.42-1.58,2.01c-.7.59-1.49,1.09-2.38,1.49s-1.65.75-2.27,1.03h.03Z"/><path class="cls-1" d="M56.63,517.4c.22.46.12.8-.3,1.02-.42.23-.76.13-1.03-.3l-9.96-15.7c-.26-.43-.21-.78.16-1.05s.74-.22,1.05.16c.5.57.99,1.14,1.43,1.72.44.57.91,1.02,1.41,1.34.49.32,1.09.45,1.76.4s1.51-.41,2.52-1.04l39.36-24.95c1.06-.67,1.76-1.31,2.1-1.89.33-.58.45-1.16.35-1.73-.1-.57-.32-1.17-.65-1.82-.34-.65-.65-1.32-.94-2.02-.16-.49-.04-.86.37-1.08s.76-.13,1.03.3l9.96,15.7c.26.43.21.78-.16,1.05-.38.27-.76.24-1.14-.12-.55-.63-1.03-1.23-1.48-1.8-.44-.58-.9-1.03-1.37-1.36-.47-.34-1.04-.47-1.71-.42-.67.05-1.54.42-2.6,1.09l-39.36,24.95c-1.01.64-1.68,1.25-2.02,1.83s-.47,1.17-.4,1.76c.08.59.27,1.21.61,1.84.33.64.67,1.34,1,2.11h.01Z"/><path class="cls-1" d="M80.75,552.1c-1.24-.76-1.81-1.59-1.7-2.52.11-.93.45-2.06,1.04-3.4l23.96-48.62c.57-1.16.87-2.17.88-3.02s-.12-1.62-.41-2.34-.67-1.37-1.16-1.99-.97-1.27-1.41-1.97c-.23-.46-.16-.83.21-1.12s.72-.24,1.06.14l13.32,15.3c.33.38.33.74,0,1.08-.34.33-.69.37-1.08.12-.64-.54-1.21-1.05-1.73-1.56-.53-.5-1.01-.85-1.47-1.04-.46-.19-.91-.16-1.37.08s-.96.87-1.47,1.9l-20.34,41.72c-.32.69-.37,1.15-.16,1.39.21.23.67.24,1.41.03l44.13-14.52c1.1-.37,1.73-.82,1.93-1.37s.15-1.13-.11-1.78-.68-1.31-1.23-1.99c-.56-.69-1.05-1.38-1.49-2.07-.24-.46-.16-.83.21-1.12.37-.29.72-.24,1.06.14l10.96,12.59c.33.38.32.72-.03,1.03-.35.31-.72.34-1.11.09-.64-.54-1.23-1.08-1.79-1.62s-1.19-1.03-1.88-1.43c-.69-.41-1.46-.65-2.33-.74-.87-.08-1.91.08-3.14.48-4.38,1.48-8.91,2.99-13.58,4.51-4.68,1.53-9.34,3.06-14,4.61-4.65,1.55-9.28,3.08-13.87,4.62-4.59,1.54-9.02,3-13.31,4.39h-.01Z"/><path class="cls-1" d="M94.62,567.3l-.07.07-4.65-4c-.38-.33-.48-.61-.3-.88.18-.26.5-.27.97-.04.7.44,1.35.89,1.94,1.35.59.47,1.23.83,1.92,1.09.69.26,1.44.37,2.26.33.82-.04,1.81-.35,2.98-.93l48.51-24.38c1.42-.69,2.54-1.08,3.36-1.16.81-.09,1.75.53,2.78,1.82l-17.99,55.9c-.27,1.09-.35,2.02-.22,2.79.12.77.37,1.46.72,2.05.35.59.81,1.15,1.36,1.67.55.52,1.08,1.06,1.57,1.66.25.38.27.69.07.93s-.49.2-.88-.13l-4.73-4.05.07-.07-5.59-4.79-.07.07-5.08-4.36c-.38-.33-.48-.61-.3-.88.18-.26.5-.27.97-.04.66.4,1.27.83,1.88,1.3.59.47,1.14.77,1.65.91s.98.07,1.43-.21.83-.94,1.15-2c.52-1.47,1.01-2.94,1.5-4.42.48-1.49.97-2.99,1.43-4.49l-23.7-20.33-8.37,4.26c-.99.47-1.53,1.01-1.61,1.59s.05,1.19.44,1.8.91,1.23,1.58,1.86c.67.61,1.25,1.22,1.75,1.81.3.43.34.75.11.97s-.54.16-.91-.16l-6.3-5.4.07-.07-1.65-1.42h-.03ZM111.61,561.12l22.26,19.1c1.8-5.66,3.58-11.29,5.34-16.86,1.76-5.58,3.56-11.18,5.4-16.81.42-1.55-.07-1.95-1.43-1.23l-31.57,15.8h0Z"/><path class="cls-1" d="M193.57,625.83c-3.94,1.43-8.07,2.02-12.36,1.79-4.3-.23-8.93-1.78-13.88-4.64-6.26-3.62-10.71-7.96-13.35-13.01-2.63-5.05-3.84-10.15-3.61-15.33s1.67-10.06,4.34-14.66c2.66-4.6,6.17-8.29,10.54-11.07,4.37-2.78,9.4-4.28,15.08-4.51,5.7-.23,11.67,1.46,17.93,5.08,2.06,1.2,3.93,2.49,5.6,3.89,1.66,1.39,3.11,2.85,4.35,4.37.24.21.57.58.99,1.12l-.04.08.08.04c.97,1.22,1.88,2.61,2.74,4.2s1.42,3.04,1.68,4.35c.21,1.14.15,2.11-.15,2.91s-.76,1.42-1.34,1.84c-.57.43-1.2.67-1.88.71-.68.04-1.32-.11-1.92-.45s-1.1-.87-1.49-1.57-.56-1.61-.49-2.73c.04-.7.19-1.38.42-2.04.24-.66.4-1.37.47-2.13.08-.76-.02-1.66-.3-2.68-.27-1.03-.89-2.22-1.86-3.58-1.05-1.19-2.33-2.33-3.81-3.4s-2.91-2.01-4.27-2.79c-4.63-2.68-9.22-3.71-13.78-3.12-4.56.6-8.69,2.27-12.39,5.04-3.7,2.76-6.8,6.26-9.28,10.48-2.48,4.23-4.01,8.63-4.59,13.21-.57,4.57.02,8.98,1.78,13.23,1.76,4.25,5.01,7.74,9.74,10.48,2.83,1.64,5.39,2.78,7.67,3.4,2.28.64,4.37.94,6.26.94s3.61-.25,5.18-.77c1.57-.52,3.01-1.08,4.31-1.7.9-.43,1.65-.46,2.25-.12.59.35.89.88.88,1.59-.01.71-.52,1.23-1.48,1.54h-.01Z"/><path class="cls-1" d="M238.12,650.92c.46.22.63.46.5.76-.13.29-.43.36-.91.21l-17.77-5.73c-.48-.15-.69-.38-.61-.69.07-.31.35-.42.85-.32.81.13,1.58.27,2.28.44s1.35.22,1.93.18c.57-.04,1.11-.31,1.59-.78s.91-1.31,1.3-2.5l5.73-17.77-10.43-34.38c-.43-1.33-.92-2.36-1.48-3.11-.55-.74-1.13-1.32-1.71-1.75-.59-.42-1.21-.77-1.84-1.04-.64-.27-1.3-.58-1.98-.93-.44-.27-.6-.54-.48-.8s.42-.31.89-.15l19.85,6.39c.48.15.68.4.6.74s-.35.43-.83.27c-.92-.23-1.78-.43-2.59-.58-.81-.16-1.46-.18-1.97-.04s-.82.46-.96.98c-.13.52-.01,1.33.35,2.45l8.5,29c.31.69.6,1.09.91,1.19.24.08.67-.04,1.31-.37l24.69-18.51c.87-.65,1.38-1.22,1.55-1.73s.08-.97-.25-1.37-.86-.77-1.58-1.1-1.51-.67-2.39-1.02c-.48-.15-.65-.38-.52-.71.13-.32.44-.41.92-.25l14.63,4.71c.48.15.69.37.64.65s-.34.41-.87.36c-.81-.13-1.56-.27-2.24-.43s-1.38-.23-2.11-.23-1.5.14-2.32.44c-.82.3-1.82.85-3.01,1.66l-28.45,21.26-5.9,18.31c-.38,1.2-.53,2.13-.41,2.8.11.66.4,1.19.83,1.56.44.37,1,.7,1.67.98.67.29,1.37.6,2.11.98l-.02.02Z"/><path class="cls-1" d="M308.08,662.26c.49.11.7.4.63.87-.08.46-.36.68-.87.63l-18.5-1.78c-.5-.04-.75-.31-.72-.78.01-.47.27-.71.78-.72.77-.05,1.5-.08,2.23-.07.72,0,1.37-.09,1.92-.29s1.02-.58,1.39-1.15c.37-.56.61-1.44.72-2.62l4.46-46.39c.12-1.25.05-2.2-.21-2.81-.25-.63-.64-1.08-1.15-1.34s-1.12-.47-1.83-.6c-.71-.13-1.44-.3-2.18-.49-.49-.18-.69-.49-.61-.97s.36-.67.87-.63l18.5,1.78c.5.05.75.31.74.78-.01.47-.27.75-.79.82-.82.04-1.6.07-2.33.05-.72,0-1.37.08-1.92.24-.55.16-1.01.53-1.38,1.1s-.61,1.47-.74,2.72l-4.46,46.39c-.11,1.19-.04,2.1.21,2.72s.64,1.09,1.14,1.39c.5.3,1.12.52,1.83.65.71.13,1.47.3,2.27.51h.01Z"/><path class="cls-1" d="M365.37,647.61c.1,3.08-.52,5.74-1.83,7.98-1.32,2.24-3.08,4.11-5.3,5.59-2.22,1.48-4.79,2.6-7.68,3.35s-5.93,1.17-9.07,1.26c-5.21.15-9.87-.4-13.97-1.65-4.09-1.26-8.18-3.62-12.25-7.08-.91-.86-1.19-1.65-.82-2.38s.88-1.12,1.57-1.13c.63-.02,1.21.31,1.72.99,1.31,1.72,2.87,3.19,4.67,4.44,1.8,1.24,3.72,2.22,5.75,2.94,2.03.72,4.08,1.24,6.14,1.56s4,.42,5.81.3c3.07-.15,5.84-.79,8.3-1.91,2.45-1.12,4.49-2.48,6.1-4.11,1.61-1.62,2.74-3.4,3.38-5.35.64-1.93.63-3.82-.03-5.66-.66-1.83-2-3.49-4.02-4.97-2.03-1.48-4.87-2.6-8.55-3.37-3.04-.66-6.27-1.27-9.68-1.82s-6.58-1.38-9.46-2.49c-2.9-1.11-5.3-2.62-7.21-4.54-1.92-1.92-2.92-4.52-3.02-7.78-.09-2.95.46-5.49,1.66-7.6,1.2-2.11,2.81-3.88,4.84-5.29s4.36-2.48,6.98-3.18c2.62-.71,5.35-1.11,8.18-1.2,4.22-.13,8.32.44,12.32,1.7,1.39.34,2.89.96,4.49,1.84h.19c.83.47,1.59.97,2.26,1.48.67.52,1.24,1.02,1.7,1.5,1.37,1.53,1.79,2.89,1.26,4.06-.53,1.19-1.36,1.79-2.49,1.82-.5.01-1.01-.1-1.51-.33-.52-.23-.97-.69-1.36-1.37-.4-.61-.68-1.26-.87-1.95-.18-.69-.44-1.36-.77-2.01-.34-.65-.86-1.3-1.57-1.93-.71-.64-1.8-1.22-3.26-1.73-3.04-.86-6.33-1.22-9.85-1.11-2.07.07-4.06.33-5.97.79-1.91.47-3.6,1.17-5.08,2.14-1.48.96-2.63,2.17-3.47,3.64-.83,1.47-1.23,3.22-1.16,5.23.03,1.2.26,2.35.67,3.47.41,1.12,1.19,2.16,2.32,3.14s2.67,1.86,4.61,2.65c1.94.79,4.47,1.48,7.56,2.09,3.04.54,6.17,1.12,9.4,1.75s6.18,1.57,8.86,2.84c2.68,1.27,4.92,2.96,6.72,5.08,1.79,2.12,2.74,4.91,2.85,8.35l-.02-.02Z"/><path class="cls-1" d="M410.76,653.7c.52-.02.83.2.93.66s-.09.76-.57.9l-15.65,4.61c-.48.14-.8,0-.97-.45-.16-.44-.02-.79.43-1.05.75-.35,1.49-.67,2.23-.96s1.35-.65,1.84-1.09c.49-.44.83-1.01,1.02-1.72.19-.71.1-1.67-.25-2.88l-12.78-45.11c-.38-1.06-.8-1.81-1.25-2.24-.45-.42-.97-.67-1.54-.72-.58-.05-1.22,0-1.91.18-.7.18-1.44.31-2.2.4-.52.02-.83-.2-.93-.66s.09-.76.57-.9l9.32-2.74c1.38-.41,2.43-.49,3.12-.27s1.48.66,2.4,1.31c7.65,5.95,15.26,11.88,22.85,17.82,7.57,5.93,15.23,11.89,22.95,17.88.53.44.93.55,1.23.33s.35-.63.18-1.23l-12.25-41.63c-.38-1.06-.86-1.8-1.43-2.18s-1.21-.59-1.9-.61-1.44.07-2.23.26c-.79.2-1.57.35-2.33.44-.52.02-.83-.2-.93-.66s.09-.77.57-.91l15.65-4.61c.48-.14.8,0,.97.45.16.44.02.8-.43,1.06-.75.35-1.51.66-2.28.92-.78.26-1.45.6-2.01,1.03-.56.43-.98.99-1.23,1.69s-.2,1.65.15,2.85l14.48,49.53c.26.91-.02,1.48-.87,1.73l-3.16.93c-.85.25-1.51.3-2.02.15s-1.04-.43-1.62-.85l-49.08-38.17,13.39,43.85c.34,1.14.78,1.97,1.32,2.46.54.49,1.14.78,1.82.85.67.07,1.38,0,2.11-.18.74-.19,1.51-.33,2.33-.44l-.04-.03Z"/><path class="cls-1" d="M460.24,571.31c6.32-3.5,12.34-5.08,18.03-4.74,5.69.34,10.7,1.93,15.04,4.79,4.34,2.84,7.82,6.62,10.42,11.33,2.6,4.71,3.95,9.65,4.06,14.84.1,5.19-1.22,10.29-3.95,15.28-2.73,4.99-7.27,9.24-13.59,12.75-6.33,3.5-12.34,5.08-18.03,4.74-5.69-.34-10.7-1.93-15.04-4.79-4.34-2.84-7.82-6.62-10.42-11.33-2.6-4.71-3.95-9.65-4.06-14.84-.1-5.19,1.22-10.29,3.95-15.28,2.73-4.99,7.27-9.24,13.59-12.75ZM461.15,572.96c-4.84,2.68-8.2,6.17-10.06,10.46-1.87,4.3-2.56,8.79-2.07,13.49.47,4.7,1.92,9.23,4.35,13.6,2.42,4.37,5.49,8.01,9.21,10.91,3.72,2.9,7.9,4.71,12.54,5.41,4.63.71,9.36-.27,14.22-2.95,4.9-2.71,8.28-6.21,10.14-10.52,1.87-4.29,2.56-8.79,2.07-13.49-.47-4.7-1.92-9.23-4.35-13.6-2.42-4.38-5.49-8.01-9.21-10.91-3.72-2.9-7.9-4.7-12.54-5.41-4.63-.71-9.4.3-14.29,3h-.01ZM478.33,602.48c.04.48-.07.79-.34.94s-.57.07-.9-.26c-.41-.35-.79-.82-1.15-1.41-.36-.59-.78-.93-1.26-1.02-.46-.18-1.01-.1-1.66.22-.65.33-1.25.49-1.81.52-.47.05-.79-.07-.94-.34-.15-.27-.07-.57.26-.9.35-.41.82-.79,1.41-1.15.59-.36.93-.78,1.02-1.26.18-.46.1-1.01-.22-1.66s-.49-1.25-.52-1.81c-.04-.47.07-.79.34-.94s.57-.07.9.26c.41.35.79.82,1.15,1.41.36.59.78.93,1.26,1.02.46.18,1.01.11,1.66-.22.65-.32,1.25-.49,1.81-.52.47-.04.79.07.94.34.15.27.07.58-.25.9-.35.41-.82.79-1.41,1.15-.59.36-.93.78-1.02,1.26-.18.46-.11,1.01.22,1.66.32.65.49,1.25.52,1.81h-.01Z"/><path class="cls-1" d="M560.85,556.36c1.06,1.24,1.95,2.61,2.67,4.12.71,1.5,1.12,3.02,1.23,4.54.11,1.53-.13,3.03-.71,4.52-.58,1.49-1.66,2.92-3.24,4.27-1.57,1.35-3.33,2.21-5.25,2.58-1.92.37-3.93.47-6,.31-2.09-.15-4.2-.45-6.36-.89-2.15-.43-4.27-.75-6.35-.96-2.09-.21-4.08-.16-5.99.11-1.92.27-3.66,1.05-5.23,2.32-.33.29-.65.43-.93.43s-.52-.1-.68-.29-.23-.44-.21-.75.2-.56.53-.77c.6-.35.93-.53.98-.53s.35-.24.92-.74c2.67-2.29,4.9-4.72,6.67-7.29,1.78-2.56,3.01-5.15,3.7-7.77.69-2.62.78-5.23.26-7.81-.52-2.58-1.76-5.02-3.72-7.31-3.97-4.63-8.57-6.59-13.8-5.86-5.23.71-10.78,3.59-16.64,8.63l-2.36,2.03.27-.11c-.91.78-1.51,1.64-1.83,2.57-.32.93.05,2.02,1.12,3.26l30.54,35.58c.82.96,1.54,1.56,2.17,1.8.63.25,1.23.3,1.8.13.57-.15,1.14-.46,1.71-.91.57-.45,1.21-.89,1.91-1.33.42-.19.78-.11,1.09.25.31.36.27.7-.11,1.03l-14.17,12.16c-.38.33-.74.33-1.06-.01s-.35-.71-.04-1.14c.49-.58,1-1.13,1.53-1.62.53-.49.92-1.02,1.2-1.58.26-.56.32-1.16.18-1.82-.15-.66-.64-1.46-1.46-2.42l-30.42-35.43c-.82-.96-1.54-1.56-2.17-1.8-.63-.24-1.24-.29-1.83-.11s-1.17.49-1.75.94c-.57.45-1.17.87-1.83,1.26-.46.23-.83.15-1.12-.22-.29-.37-.24-.72.14-1.05l20.76-17.82c2.58-2.22,5.3-4.01,8.17-5.4,2.87-1.38,5.74-2.22,8.62-2.49s5.63.08,8.29,1.03c2.65.97,5.04,2.68,7.17,5.16s3.45,5.08,3.95,7.79c.5,2.72.43,5.42-.25,8.11-.67,2.69-1.81,5.3-3.4,7.84-1.59,2.54-3.44,4.85-5.51,6.97,2.27-1.12,4.59-1.58,6.96-1.37,2.37.2,4.69.52,6.96.93,2.26.42,4.44.65,6.5.69,2.07.04,3.94-.65,5.61-2.09.96-.82,1.59-1.77,1.92-2.83.33-1.06.37-2.07.13-3.03s-.71-1.79-1.42-2.51-1.56-1.14-2.58-1.26c-1.33-.19-2.49-.32-3.51-.4-1.02-.08-1.88-.53-2.58-1.34-.57-.67-.82-1.39-.74-2.16.08-.77.45-1.45,1.12-2.02.81-.7,1.62-.98,2.44-.86.81.13,1.6.45,2.37.96s1.46,1.13,2.1,1.87c.64.74,1.17,1.37,1.62,1.9l-.03-.02Z"/><path class="cls-1" d="M584.15,544.61c.35-.36.72-.38,1.11-.05.38.33.43.69.12,1.1l-9.73,12.99c-.31.41-.66.46-1.09.19-.42-.27-.51-.64-.25-1.08.35-.68.72-1.36,1.12-2.04.4-.69.64-1.37.71-2.06.08-.68-.03-1.37-.33-2.07-.31-.69-.96-1.43-1.97-2.17l-36.18-27.69c-1.01-.75-1.86-1.2-2.55-1.32s-1.32-.05-1.86.2c-.55.26-1.08.65-1.58,1.17-.5.52-1.04,1.04-1.59,1.57-.41.33-.78.34-1.14.03-.36-.31-.38-.66-.09-1.06l5.99-8c.64-.86,1.31-1.39,1.99-1.64.69-.23,1.43-.24,2.22-.04,1.95.44,3.88.88,5.79,1.33s3.83.89,5.79,1.33l23.08,5.38c1.95.44,3.88.88,5.79,1.33,1.91.45,3.83.89,5.79,1.33.46.11.81.01,1.04-.29.23-.31.2-.64-.08-1l-25.26-42.61,7.68-10.26c.31-.41.65-.47,1.04-.22.4.26.49.63.3,1.11-.38.74-.78,1.41-1.15,2.02s-.65,1.21-.79,1.77c-.14.56-.07,1.14.22,1.76s.94,1.28,1.94,2.04l37.3,27.94c.96.71,1.77,1.13,2.44,1.23.67.11,1.26.02,1.78-.25.53-.27,1.02-.68,1.5-1.23.48-.54,1.02-1.1,1.61-1.68.35-.36.7-.4,1.06-.09.36.31.38.67.09,1.06l-11.14,14.88c-.3.41-.65.47-1.04.22-.4-.25-.47-.6-.22-1.04.35-.68.72-1.33,1.1-1.94.38-.61.64-1.22.76-1.79.12-.58.03-1.17-.25-1.79-.29-.6-.91-1.27-1.87-1.99l-36.77-27.53,25.66,43.96-1.76,2.34c-.53.7-1.04,1.15-1.53,1.33-.49.19-1.06.3-1.73.35l-46.67-11.02,35.47,25.97c1.01.76,1.89,1.17,2.65,1.27.76.09,1.46,0,2.11-.31.65-.3,1.24-.72,1.77-1.26.53-.55,1.06-1.09,1.62-1.61l-.02-.03Z"/><path class="cls-1" d="M623.78,489.54l.09.03-2.46,5.62c-.21.46-.45.65-.76.55-.3-.1-.41-.4-.32-.91.21-.8.46-1.55.72-2.25.27-.7.44-1.43.48-2.16s-.07-1.48-.35-2.26c-.27-.78-.87-1.64-1.76-2.57l-37.48-39.29c-1.08-1.15-1.77-2.12-2.09-2.88-.32-.76,0-1.82.93-3.19l58.72.91c1.12-.05,2.03-.26,2.73-.6.7-.34,1.28-.78,1.75-1.3.47-.52.87-1.12,1.2-1.8.33-.68.7-1.34,1.12-1.98.3-.35.58-.46.87-.34.29.13.33.42.13.88l-2.5,5.71-.09-.04-2.95,6.74.09.03-2.69,6.14c-.2.46-.45.64-.76.55-.3-.1-.41-.41-.32-.91.19-.75.42-1.46.69-2.17.27-.7.41-1.32.4-1.83s-.22-.96-.61-1.3-1.14-.52-2.25-.52c-1.55-.07-3.11-.11-4.68-.14-1.56-.03-3.13-.05-4.71-.05l-12.54,28.6,6.51,6.77c.75.8,1.41,1.16,2,1.08.58-.09,1.12-.4,1.6-.94s.92-1.23,1.31-2.05c.4-.82.8-1.56,1.22-2.2.32-.41.61-.54.89-.38.27.15.31.46.11.92l-3.34,7.6-.09-.03-.87,1.99h.04ZM612.91,475.09l11.78-26.87c-5.95-.07-11.85-.12-17.69-.18-5.85-.05-11.72-.14-17.65-.26-1.6.05-1.86.63-.76,1.72l24.32,25.59Z"/><path class="cls-1" d="M659.27,378.65c.31.07.42.32.33.75l-10.01,46.96c-.11.49-.4.7-.86.64-.47-.07-.68-.35-.64-.86.03-.77.1-1.5.19-2.23.09-.72.07-1.37-.07-1.94s-.46-1.08-.98-1.51c-.52-.43-1.36-.77-2.54-1.02l-45.58-9.72c-1.23-.26-2.17-.3-2.82-.12-.65.19-1.14.52-1.46.99-.33.48-.59,1.06-.81,1.76-.21.69-.46,1.39-.74,2.11-.23.46-.57.64-1.02.5s-.64-.44-.53-.93l3.88-18.18c.1-.49.4-.7.86-.64.47.07.71.36.72.88-.04.82-.12,1.6-.21,2.32-.09.72-.08,1.37.02,1.93.11.57.42,1.08.93,1.5.52.44,1.39.78,2.62,1.04l45.76,9.75c1.42.31,2.45.19,3.11-.35.66-.54,1.16-1.28,1.49-2.24l3.7-17.35c.52-2.4.7-4.44.58-6.1-.13-1.67-.51-3.06-1.13-4.19s-1.48-2.09-2.57-2.87c-1.09-.78-2.33-1.51-3.73-2.2-.41-.21-.54-.55-.41-1.01.13-.45.41-.64.83-.54l11.07,2.84v.02Z"/><circle class="cls-1" cx="636.28" cy="342.94" r="8.9"/><circle class="cls-1" cx="28.77" cy="342.94" r="8.9"/><path class="cls-1" d="M295.88,439.63c-9.51-1.56-18.46-3.23-26.95-5.01,5.94,7.31,14.95,12.02,25.1,12.02h5.24c-1.36-2.2-2.5-4.54-3.4-7Z"/><path class="cls-1" d="M296.72,411.4c-30.78-36.42-64.64-83.01-73.04-119.9-8.92-1.9-17.56.26-25.5,8.05-36.73,36.07,46.58,89.19,96.89,116.46.46-1.58,1-3.13,1.65-4.62Z"/><path class="cls-1" d="M293.57,427.2c-54.2-28.98-89.46-55.69-105.33-79.71-3.63,2.35-6.73,5.82-9.16,10.69-20.46,40.87,63.74,61.7,114.55,70.37-.02-.44-.06-.89-.07-1.34Z"/><path class="cls-1" d="M307.43,397.18c-15.09-47.68-29.05-105.83-23.85-145.99-8.91-7.57-19.51-10.01-32.13-4.7-51.27,21.56,11.73,108.43,51.14,155.51,1.48-1.75,3.09-3.36,4.84-4.81Z"/><path class="cls-1" d="M461.45,299.56c-7.9-7.76-16.48-9.93-25.36-8.08,0,.04-.03.09-.03.13-.43,1.92-.94,3.89-1.51,5.89-.32,1.11-.7,2.26-1.06,3.4-.4,1.23-.81,2.47-1.25,3.74-.42,1.18-.85,2.37-1.31,3.58-.54,1.41-1.13,2.84-1.74,4.28-.51,1.23-1.01,2.45-1.57,3.7-.98,2.2-2.04,4.45-3.17,6.74-.57,1.16-1.19,2.35-1.8,3.52-.83,1.61-1.68,3.23-2.57,4.89-.65,1.2-1.31,2.4-1.99,3.61-1.13,1.99-2.31,4.02-3.53,6.07-.51.86-.99,1.7-1.52,2.57-1.72,2.82-3.54,5.71-5.43,8.63-.71,1.1-1.46,2.22-2.2,3.33-1.39,2.1-2.82,4.23-4.31,6.38-.77,1.13-1.55,2.25-2.35,3.4-1.95,2.79-3.98,5.61-6.08,8.48-.33.44-.63.88-.96,1.33-2.43,3.3-4.99,6.68-7.62,10.09-.8,1.04-1.64,2.1-2.46,3.16-2.01,2.57-4.07,5.18-6.19,7.81-.86,1.07-1.72,2.14-2.59,3.23-2.43,2.99-4.95,6.02-7.5,9.08.98,1.83,1.8,3.75,2.48,5.73,50.54-27.76,129.58-79.38,93.63-114.69Z"/><path class="cls-1" d="M367.83,438.93c-.93,2.72-2.16,5.29-3.65,7.7h1.87c10.21,0,19.27-4.76,25.2-12.14-7.41,1.56-15.22,3.04-23.42,4.44Z"/><path class="cls-1" d="M480.54,358.18c-2.43-4.87-5.54-8.35-9.17-10.69-15.49,23.42-49.5,49.45-101.54,77.68.02.49.07.96.07,1.45,0,.42-.05.84-.06,1.26,51.08-9.05,130.65-29.84,110.7-69.7Z"/><path class="cls-1" d="M352.87,394.85c2.16,1.44,4.16,3.1,5.99,4.95,39.49-47.53,99.79-132.08,49.31-153.31-12.65-5.32-23.26-2.86-32.18,4.74,5.1,39.59-8.39,96.6-23.12,143.62Z"/><circle class="cls-1" cx="331.73" cy="426.61" r="26.04"/><path class="cls-1" d="M331.73,388.43c4.02,0,7.89.63,11.54,1.79,19.44-62.52,46.83-177.06-13.47-177.06s-32.53,116.13-13.07,178.35c4.6-1.98,9.68-3.09,15.01-3.09Z"/></g></svg>