<svg width="512" height="512" viewBox="0 0 512 512" fill="none" xmlns="http://www.w3.org/2000/svg">
<path fill-rule="evenodd" clip-rule="evenodd" d="M351.503 284.331L377.378 249.444H388.426L381.448 297.413L349.177 339.568L360.806 348L257.308 447.429L258.762 439.289L352.084 304.973L331.734 296.541L259.633 349.163L257.308 345.674L262.54 228.511L319.814 205.253L315.743 231.418L270.971 251.77L262.831 337.243L264.576 338.405L327.663 285.202L324.174 256.13L333.188 238.687L336.966 202.636L331.152 198.275L327.663 198.857L257.888 109.022L329.408 186.356L323.303 143.037L278.531 108.441L269.518 79.0777H242.48L233.468 108.441L188.696 143.037L182.591 186.356L254.109 109.022L184.335 198.857L180.846 198.275L175.031 202.636L178.811 238.687L187.824 256.13L184.335 285.202L247.423 338.405L249.167 337.243L241.026 251.77L196.254 231.418L192.184 205.253L249.458 228.511L254.691 345.674L252.365 349.163L180.265 296.541L159.914 304.973L253.237 439.289L254.691 447.429L151.192 348L162.821 339.568L130.551 297.413L123.573 249.444H134.621L160.495 284.331H167.764L169.798 261.945L163.694 244.501L157.007 198.276L164.856 194.787L175.031 133.443L221.839 97.6842L235.793 66.8676H276.205L290.159 97.6842L336.966 133.443L347.142 194.787L354.992 198.276L348.305 244.501L342.2 261.945L344.234 284.331H351.503H351.503Z" fill="#F1F2F2"/>
<path fill-rule="evenodd" clip-rule="evenodd" d="M256 0L14.1152 241.884L256 483.769L497.885 241.884L256 0ZM22.3378 241.884L256 8.2227L489.661 241.884L256 475.546L22.3378 241.884Z" fill="#AB8563"/>
<path fill-rule="evenodd" clip-rule="evenodd" d="M256 28.2311L14.1152 270.116L256 512L497.885 270.116L256 28.2311ZM22.3378 270.116L256 36.4543L489.661 270.116L256 503.778L22.3378 270.116Z" fill="#45484A"/>
</svg>
