<svg width="512" height="512" viewBox="0 0 512 512" fill="none" xmlns="http://www.w3.org/2000/svg">
<path fill-rule="evenodd" clip-rule="evenodd" d="M384.488 292.571L419.299 245.635H434.163L424.776 310.172L381.359 366.887L397.005 378.23L257.76 512L259.716 501.048L385.27 320.342L357.891 308.999L260.889 379.795L257.76 375.101L264.799 217.473L341.854 186.182L336.378 221.384L276.142 248.764L265.191 363.758L267.538 365.323L352.415 293.744L347.721 254.631L359.847 231.163L364.931 182.661L357.108 176.794L352.415 177.576L258.541 56.7149L354.762 160.758L346.548 102.478L286.313 55.9327L274.188 16.4277H237.811L225.686 55.9327L165.45 102.478L157.237 160.758L253.457 56.7147L159.584 177.576L154.89 176.794L147.067 182.661L152.152 231.163L164.278 254.63L159.584 293.744L244.461 365.322L246.808 363.758L235.855 248.764L175.62 221.384L170.144 186.182L247.199 217.472L254.239 375.101L251.11 379.795L154.108 308.999L126.728 320.342L252.284 501.048L254.239 512L114.994 378.23L130.639 366.887L87.2231 310.172L77.8359 245.635H92.699L127.51 292.571H137.289L140.027 262.453L131.813 238.985L122.817 176.794L133.378 172.1L147.067 89.5699L210.041 41.4601L228.815 0H283.184L301.958 41.4601L364.931 89.5699L378.622 172.1L389.182 176.794L380.186 238.985L371.972 262.453L374.709 292.571H384.488H384.488Z" fill="#F1F2F2"/>
</svg>
